# xmcd
# 
# Track frame offsets:
#     150
#     19954
#     36295
#     57418
# 
# Disc length: 1027
# 
# Revision: 0
# Processed by: cddbd v1.5.2PL0 Copyright (c) Steve Scherf et al.
# Submitted via: fre:ac v1.0.17
# 
DISCID=31040104
DTITLE=藍井エイル - ツナガルオモイ
DYEAR=0
DGENRE=
TTITLE0=ツナガルオモイ
TTITLE1=Raspberry Moon
TTITLE2=Gladius
TTITLE3=ツナガルオモイ (instrumental)
EXTD=
EXTT0=
EXTT1=
EXTT2=
EXTT3=
PLAYORDER=
